<svg xmlns="http://www.w3.org/2000/svg" xmlns:xlink="http://www.w3.org/1999/xlink" width="22" height="13" viewBox="0 0 22 13"><defs><path id="l8yka" d="M1250.3 299.09c-2.79.17-5.1-2.11-4.92-4.88a4.62 4.62 0 0 1 4.32-4.29c2.8-.17 5.1 2.11 4.93 4.88a4.64 4.64 0 0 1-4.32 4.29zM1250 288c-4.2 0-8.02 2.28-10.83 5.98a.86.86 0 0 0 0 1.03c2.81 3.71 6.63 5.99 10.83 5.99s8.02-2.28 10.83-5.98a.86.86 0 0 0 0-1.03c-2.81-3.71-6.63-5.99-10.83-5.99z"/></defs><g><g transform="translate(-1239 -288)"><g><use fill="#f36" xlink:href="#l8yka"/></g></g></g></svg>