<svg xmlns="http://www.w3.org/2000/svg" xmlns:xlink="http://www.w3.org/1999/xlink" width="25" height="25" viewBox="0 0 25 25"><defs><path id="tjhxa" d="M311.33 410.13l7.31 8.45c.16.2.26.42.26.67v10.32l3.32-3v-7.52c0-.26.1-.47.26-.68l7.1-8.24h-18.25zm5.5 21.78v-12.24l-8.56-9.9c-.46-.57-.4-1.72.77-1.72h22.82c1.11 0 1.37 1.02.78 1.71l-8.35 9.65v7.57c0 .3-.1.57-.36.78l-5.34 4.92c-.62.46-1.77.22-1.77-.77z"/></defs><g><g transform="translate(-308 -408)"><use fill="#9b9b9b" xlink:href="#tjhxa"/></g></g></svg>