<svg xmlns="http://www.w3.org/2000/svg" xmlns:xlink="http://www.w3.org/1999/xlink" width="30" height="28" viewBox="0 0 30 28"><defs><path id="7zzga" d="M640.85 91.11a.45.45 0 0 0-.49-.07l-29.1 13.64a.45.45 0 0 0 0 .81l8.23 4.08c.15.08.33.06.46-.04l8.01-6.04-6.29 6.52a.45.45 0 0 0-.12.35l.62 8.22a.45.45 0 0 0 .45.42c.13 0 .25-.06.34-.16l4.37-5.1 5.4 2.6a.45.45 0 0 0 .63-.27l7.62-24.48a.45.45 0 0 0-.13-.48z"/></defs><g><g transform="translate(-611 -91)"><use fill="#9b9b9b" xlink:href="#7zzga"/></g></g></svg>