<svg xmlns="http://www.w3.org/2000/svg" xmlns:xlink="http://www.w3.org/1999/xlink" width="22" height="24" viewBox="0 0 22 24"><defs><path id="4jxfa" d="M294.5 212.13l-1.85-.07-.4 10.92 1.84.07z"/><path id="4jxfb" d="M289.08 223.01v-10.92h1.85v10.92z"/><path id="4jxfc" d="M287.75 222.98l-.4-10.92-1.84.07.4 10.92z"/><path id="4jxfd" d="M295.74 225.71h-11.5l-1.45-16.33h14.39zm-16.72-18.17v1.85h1.92l1.53 17.34c.04.47.44.84.92.84h13.2c.47 0 .87-.37.91-.85l1.53-17.33H301v-1.85z"/><path id="4jxfe" d="M293.02 204h-6.03c-.85 0-1.54.69-1.54 1.54v2.92h1.85v-2.61h5.41v2.61h1.85v-2.92c0-.85-.7-1.54-1.54-1.54z"/></defs><g><g transform="translate(-279 -204)"><g><g><use fill="#f36" xlink:href="#4jxfa"/></g><g><use fill="#f36" xlink:href="#4jxfb"/></g><g><use fill="#f36" xlink:href="#4jxfc"/></g><g><use fill="#f36" xlink:href="#4jxfd"/></g></g><g><use fill="#f36" xlink:href="#4jxfe"/></g></g></g></svg>