<svg xmlns="http://www.w3.org/2000/svg" xmlns:xlink="http://www.w3.org/1999/xlink" width="22" height="22" viewBox="0 0 22 22"><defs><path id="4jmha" d="M1639.93 33.17a.88.88 0 0 0-.2-.29l-2.7-2.62a.92.92 0 0 0-1.27 0 .86.86 0 0 0 0 1.23l1.17 1.13h-5.03c-.5 0-.9.4-.9.88s.4.87.9.87h5.03l-1.17 1.14a.86.86 0 0 0 0 1.23c.18.18.41.26.64.26a.9.9 0 0 0 .64-.26l2.7-2.62a.87.87 0 0 0 .2-.95z"/><path id="4jmhb" d="M1633.11 35.83a.9.9 0 0 0-.89.92v4.58h-3.55V26.67c0-.4-.26-.77-.64-.88l-3.08-.96h7.27v4.59c0 .5.4.91.9.91a.9.9 0 0 0 .88-.91v-5.5a.9.9 0 0 0-.89-.92h-14.22l-.1.02a.87.87 0 0 0-.37.13l-.06.03-.02.02a.9.9 0 0 0-.24.3l-.02.07c-.03.07-.06.14-.07.21v.08l-.01.06v18.33c0 .44.3.81.71.9l8.9 1.83a.87.87 0 0 0 .74-.19c.2-.17.32-.43.32-.7v-.92h4.44a.9.9 0 0 0 .89-.92v-5.5a.9.9 0 0 0-.89-.92z"/></defs><g><g transform="translate(-1618 -23)"><g><use fill="#f36" xlink:href="#4jmha"/></g><g><use fill="#f36" xlink:href="#4jmhb"/></g></g></g></svg>